<?xml version="1.0" encoding="UTF-8"?>
<svg width="230px" height="164px" viewBox="0 0 230 164" version="1.1" xmlns="http://www.w3.org/2000/svg" xmlns:xlink="http://www.w3.org/1999/xlink">
    <!-- Generator: Sketch 59.1 (86144) - https://sketch.com -->
    <title>Path</title>
    <desc>Created with Sketch.</desc>
    <g id="BudgetPlannerApp" stroke="none" stroke-width="1" fill="none" fill-rule="evenodd" opacity="0.112165179">
        <g id="Onboarding---illustrations-2" transform="translate(-73.000000, -190.000000)" fill="#FFFFFF">
            <g id="2" transform="translate(31.000000, 141.000000)">
                <g id="hand-pork">
                    <g id="Shape" transform="translate(42.000000, 0.000000)">
                        <polygon id="Path" style="mix-blend-mode: multiply;" points="-14.3154421 212.684053 -14.3154421 92.6428866 27.6027464 92.6428866 27.6027464 98.1543033 34.4775453 98.1543033 34.4775453 74.7759578 39.6393545 65.4246195 39.6393545 55.2375337 41.7863017 55.2375337 41.7863017 65.8537872 47.7931858 74.3693778 47.7931858 111.345563 55.1019422 111.345563 55.1019422 49.2631579 77.0282113 49.2631579 77.0282113 106.240726 81.3221056 106.240726 81.3221056 95.195305 90.7778092 95.195305 90.7778092 101.994225 110.534291 101.994225 110.534291 110.487228 126.019719 110.487228 126.019719 97.3185557 134.17355 97.3185557 134.17355 104.953223 140.203274 104.953223 140.203274 100.277554 148.791063 100.277554 148.791063 94.7661373 159.114681 94.7661373 159.114681 109.222312 166.834555 109.222312 166.834555 81.1682977 171.996364 74.3693778 179.305121 81.5974654 179.305121 94.3369696 230.684558 94.3369696 230.684558 212.684053"></polygon>
                    </g>
                </g>
            </g>
        </g>
    </g>
</svg>