<?xml version="1.0" encoding="UTF-8"?>
<svg width="25px" height="25px" viewBox="0 0 25 25" version="1.1" xmlns="http://www.w3.org/2000/svg" xmlns:xlink="http://www.w3.org/1999/xlink">
    <!-- Generator: Sketch 59.1 (86144) - https://sketch.com -->
    <title>$</title>
    <desc>Created with Sketch.</desc>
    <defs>
        <linearGradient x1="92.2086499%" y1="-7.18243601%" x2="44.2901796%" y2="100%" id="linearGradient-1">
            <stop stop-color="#FFD79A" offset="0%"></stop>
            <stop stop-color="#F88862" offset="100%"></stop>
        </linearGradient>
    </defs>
    <g id="BudgetPlannerApp" stroke="none" stroke-width="1" fill="none" fill-rule="evenodd">
        <g id="Onboarding---illustrations-3" transform="translate(-48.000000, -279.000000)">
            <g id="3" transform="translate(43.000000, 130.000000)">
                <g id="Illustration">
                    <g id="$" transform="translate(18.026633, 161.640521) rotate(35.000000) translate(-18.026633, -161.640521) translate(5.526633, 149.140521)">
                        <ellipse id="Oval" fill="#F08762" cx="12.448866" cy="12.8221313" rx="11.6909385" ry="11.7063492"></ellipse>
                        <ellipse id="Oval" fill="url(#linearGradient-1)" cx="11.109157" cy="12.5401381" rx="10.7556634" ry="11.7063492"></ellipse>
                        <path d="M15.2320429,14.1674355 C15.2560469,14.8842474 14.9415409,15.5714336 14.3807688,16.0274443 C13.6891666,16.5392937 12.8566897,16.8322758 11.9930489,16.8677788 L11.9930489,18.3588603 L10.9549098,18.3588603 L10.9549098,16.8985228 C9.86662864,16.8955984 8.78936313,16.6832621 7.7833949,16.2733959 L7.7833949,14.3518991 C8.28444476,14.5824664 8.80565015,14.7676891 9.34060354,14.9052902 C9.87009265,15.0500136 10.4123971,15.1443836 10.9601005,15.1871097 L10.9601005,12.9325536 L10.441031,12.7429659 C9.66476787,12.4883522 8.95556327,12.0665474 8.36475279,11.508084 C7.95277606,11.0566051 7.73334373,10.4655101 7.75225073,9.85815884 C7.73911574,9.18202468 8.0510003,8.53966484 8.59314339,8.1262498 C9.27378422,7.6253703 10.0911945,7.33795467 10.9393377,7.30128721 L10.9393377,6.18425712 L11.9774768,6.18425712 L11.9774768,7.27054326 C13.03384,7.30080393 14.0748034,7.52857687 15.0451778,7.94178611 L14.3496246,9.6429512 C13.5931981,9.33420757 12.793094,9.14236892 11.9774768,9.07418818 L11.9774768,11.2211405 C12.7004184,11.4666131 13.3961112,11.7842363 14.053755,12.1690789 C14.4163569,12.3903525 14.7233902,12.6899362 14.9517453,13.0452814 C15.1461018,13.387489 15.2429619,13.7752624 15.2320429,14.1674355 Z M10.0413474,9.85815884 C10.0389543,10.0524396 10.1200565,10.2386257 10.2645473,10.370558 C10.4842971,10.5494878 10.7313049,10.6930211 10.9964354,10.7958492 L10.9964354,9.08956015 C10.3372171,9.19716397 10.0205846,9.44823954 10.0205846,9.85815884 L10.0413474,9.85815884 Z M13.020813,14.2750393 C13.0216986,14.0755714 12.9298688,13.8867179 12.7716532,13.7626402 C12.5395661,13.5837877 12.2847947,13.4356453 12.0138117,13.3219769 L12.0138117,15.1358698 C12.6834114,15.018018 13.0000438,14.7361985 13.0000438,14.2750393 L13.020813,14.2750393 Z" id="Shape" fill="#FFFFFF" fill-rule="nonzero"></path>
                    </g>
                </g>
            </g>
        </g>
    </g>
</svg>