<?xml version="1.0" encoding="UTF-8"?>
<svg width="23px" height="23px" viewBox="0 0 23 23" version="1.1" xmlns="http://www.w3.org/2000/svg" xmlns:xlink="http://www.w3.org/1999/xlink">
    <!-- Generator: Sketch 59.1 (86144) - https://sketch.com -->
    <title>Euro</title>
    <desc>Created with Sketch.</desc>
    <defs>
        <linearGradient x1="20.1729767%" y1="2.16582419%" x2="79.5043487%" y2="85.484104%" id="linearGradient-1">
            <stop stop-color="#E9B0FF" offset="0%"></stop>
            <stop stop-color="#8A63E5" offset="100%"></stop>
        </linearGradient>
    </defs>
    <g id="BudgetPlannerApp" stroke="none" stroke-width="1" fill="none" fill-rule="evenodd">
        <g id="Onboarding---illustrations-3" transform="translate(-300.000000, -190.000000)">
            <g id="3" transform="translate(43.000000, 130.000000)">
                <g id="Illustration">
                    <g id="Euro" transform="translate(268.885396, 71.255821) rotate(128.000000) translate(-268.885396, -71.255821) translate(257.385396, 59.255821)">
                        <ellipse id="Oval" fill="#7F59CC" cx="12.2132866" cy="11.7293542" rx="10.7556634" ry="11.2185847"></ellipse>
                        <ellipse id="Oval" fill="url(#linearGradient-1)" cx="11.1883734" cy="11.9455862" rx="10.2880259" ry="11.2185847"></ellipse>
                        <path d="M7.88242833,13.2885804 L8.34164371,12.1693628 L8.82762426,12.1698843 C8.81462478,11.9713851 8.80802677,11.7793679 8.80783003,11.5938271 C8.80756467,11.3435627 8.81797498,11.1105729 8.83906126,10.8948506 L7.87988912,10.8938212 L8.33910449,9.77460359 L9.06168084,9.77537909 C9.73297606,7.6445399 11.2494543,6.58040359 13.6111611,6.58293373 C14.3870287,6.58377093 15.1246233,6.68380371 15.8239672,6.88303957 L15.8254633,8.29400579 C15.1686534,8.00420271 14.4715087,7.8589076 13.7340082,7.85811609 C12.3186893,7.85659713 11.40923,8.49637382 11.0056031,9.77746536 L15.219566,9.78198791 L14.7603506,10.9012055 L10.7318276,10.896882 C10.710659,11.034936 10.7001984,11.2204626 10.7004454,11.4534674 C10.7007291,11.7209914 10.7095089,11.960474 10.7267851,12.1719226 L14.2373552,12.1756902 L13.7845343,13.2949147 L10.9709626,13.2918951 C11.2744598,14.0689025 11.6437775,14.6097317 12.078927,14.914399 C12.5140764,15.2190663 13.1344961,15.3718301 13.9402047,15.3726948 C14.5157109,15.3733124 15.1464803,15.2359147 15.8325319,14.9604975 L15.8339388,16.2873236 C15.1819547,16.5282581 14.4062268,16.6482409 13.506732,16.6472813 C11.1407622,16.6447363 9.64328368,15.5255874 9.01425146,13.2897951 L7.88242833,13.2885804 Z" id="€" fill="#FFFFFF" fill-rule="nonzero" transform="translate(11.856914, 11.615108) rotate(-175.000000) translate(-11.856914, -11.615108) "></path>
                    </g>
                </g>
            </g>
        </g>
    </g>
</svg>