<?xml version="1.0" encoding="UTF-8"?>
<svg width="61px" height="74px" viewBox="0 0 61 74" version="1.1" xmlns="http://www.w3.org/2000/svg" xmlns:xlink="http://www.w3.org/1999/xlink">
    <!-- Generator: Sketch 59.1 (86144) - https://sketch.com -->
    <title>FlowerPot</title>
    <desc>Created with Sketch.</desc>
    <defs>
        <linearGradient x1="50.520027%" y1="-11.303839%" x2="50%" y2="100%" id="linearGradient-1">
            <stop stop-color="#84F6BB" offset="0%"></stop>
            <stop stop-color="#22B989" offset="100%"></stop>
        </linearGradient>
        <linearGradient x1="37.6692452%" y1="0%" x2="80.985566%" y2="89.8485921%" id="linearGradient-2">
            <stop stop-color="#76EDAA" offset="0%"></stop>
            <stop stop-color="#25B889" offset="100%"></stop>
        </linearGradient>
        <linearGradient x1="72.5034426%" y1="-11.8192461%" x2="33.2165159%" y2="83.5752392%" id="linearGradient-3">
            <stop stop-color="#7EF192" offset="0%"></stop>
            <stop stop-color="#2DC897" offset="100%"></stop>
        </linearGradient>
        <linearGradient x1="100%" y1="39.2764657%" x2="16.8549275%" y2="61.8662972%" id="linearGradient-4">
            <stop stop-color="#CD7B92" offset="0%"></stop>
            <stop stop-color="#1F3168" offset="100%"></stop>
        </linearGradient>
    </defs>
    <g id="BudgetPlannerApp" stroke="none" stroke-width="1" fill="none" fill-rule="evenodd">
        <g id="Onboarding---illustrations-3" transform="translate(-48.000000, -332.000000)" fill-rule="nonzero">
            <g id="3" transform="translate(41.000000, 130.000000)">
                <g id="Illustration">
                    <g id="FlowerPot" transform="translate(0.000000, 194.000000)">
                        <g id="Leave" transform="translate(35.185341, 34.599725) rotate(10.000000) translate(-35.185341, -34.599725) translate(4.685341, 5.599725)">
                            <g id="Middle" transform="translate(25.787601, 0.456562)">
                                <path d="M3.38160272,51.0053284 C0.39629281,40.2864829 0.845874337,32.9241823 4.7303473,28.9184267 C10.1145182,22.5647621 12.6219812,23.8875275 11.8888674,15.3271466 C10.5672273,9.68826069 11.4120662,4.57921182 14.4233843,-5.68434189e-14 C7.38743745,4.70237999 3.17086584,10.2699892 1.77366943,16.7028276 C-0.591223143,24.2325492 -0.591223143,35.6667161 1.77366943,51.0053284" fill="url(#linearGradient-1)"></path>
                                <path d="M11.6010726,3.25536179 C8.3882229,7.32921931 6.78179806,10.4870204 6.78179806,12.728765 C6.78179806,16.091382 8.41822062,20.7160109 4.89141911,24.1750234 C1.3646176,27.6340359 4.4408921e-16,37.2612545 1.79625818,47.8575824" id="Path-2" stroke="#20B989" stroke-width="0.5"></path>
                            </g>
                            <g id="Left" transform="translate(0.233692, 18.137497)">
                                <path d="M-1.98951966e-13,-2.84217094e-14 C6.57007332,4.26050262 10.1997694,8.26650986 10.8890881,12.0180217 C11.88362,17.5864323 12.817671,18.9927166 20.7580927,23.054286 C28.9939834,26.8384917 32.2421347,28.8319531 30.9277843,36.4809229 C30.8467093,36.9527454 30.6703522,37.5983563 30.3987131,38.4177557 L32.2981896,38.4177557 C34.3963962,31.1125767 31.6680734,22.7677436 24.1132212,13.3832565 C16.4902064,4.89082738 8.45246597,0.429741871 -1.98951966e-13,-2.84217094e-14 Z" fill="url(#linearGradient-2)"></path>
                                <path d="M5.24625901,2.71880136 C10.2302916,4.42394811 13.0516799,6.41312037 13.7104237,8.68631817 C14.6985395,12.0961149 16.0754786,15.7301672 19.0094583,15.7301672 C23.3829476,15.7301672 27.3766659,19.731416 30.9357925,28.5370587 C31.8983334,30.9184831 32.0617535,34.343574 31.4260528,38.8123311" id="Path" stroke="#27C492" stroke-width="0.5"></path>
                            </g>
                            <g id="Right" transform="translate(28.542079, 11.480447)">
                                <path d="M2.14543528,38.8532673 C1.81054534,33.5382326 2.88360459,29.1662162 5.36461303,25.737218 C9.08612568,20.5937207 14.8698183,21.1466508 23.0041189,15.7711772 C26.9563569,13.3224422 29.7554928,8.06538317 31.4015264,0 C26.5847958,0.648191576 21.9450265,3.39221216 17.4822185,8.23206176 C10.6744557,15.6149802 7.78776158,20.8842476 5.93267333,23.152411 C3.56231688,26.3776708 1.58475911,31.6112895 0,38.8532673 L2.14543528,38.8532673 Z" fill="url(#linearGradient-3)"></path>
                                <path d="M29.9478533,1.0879305 C26.7237289,2.8359611 25.1116667,4.44913458 25.1116667,5.92745093 C25.1116667,8.14492546 23.5500192,11.3115267 20.9703331,11.3115267 C18.390647,11.3115267 16.6844768,13.782514 15.407871,15.7844103 C13.7083565,18.4494865 9.3866915,20.0088515 4.75474995,25.9125266 C2.96692549,28.1912113 1.6713051,32.4941693 0.867888774,38.8214005" id="Path-3" stroke="#1FAF81" stroke-width="0.5"></path>
                            </g>
                            <path d="M17.829944,51.8341885 C19.5871311,47.9633626 21.5429114,46.0271743 23.6972849,46.0256236 C26.9288451,46.0233003 30.2849545,48.9230573 30.9743691,48.9225614 C31.6637836,48.9220654 33.2940574,47.3175915 35.8003973,47.3157885 C37.4712906,47.3145865 40.0528295,48.8145536 43.545014,51.8156897 L17.829944,51.8341885 Z" id="Ground" fill="#694D42" transform="translate(30.687479, 48.929906) rotate(-10.000000) translate(-30.687479, -48.929906) "></path>
                        </g>
                        <path d="M10.4525007,57.6123618 C8.69665146,59.4502328 7.90877446,62.403564 8.08886972,66.4723554 C8.35901261,72.5755426 11.9810597,76.8362748 15.8446667,79.0049493 C20.0499676,81.3654192 35.0005193,83.8578004 45.5255053,79.0049493 C49.542345,77.1528684 54.0270521,73.2674188 54.0270521,66.4723554 C54.0270521,62.2984064 53.0087102,59.3054273 50.9720263,57.4934183 L10.4525007,57.6123618 Z" id="Path-2" fill="url(#linearGradient-4)"></path>
                        <rect id="Rectangle" fill="#9D6686" x="9.67648694" y="56.6836519" width="43.5441912" height="1.61953291" rx="0.809766455"></rect>
                    </g>
                </g>
            </g>
        </g>
    </g>
</svg>