<?xml version="1.0" encoding="UTF-8"?>
<svg width="182px" height="130px" viewBox="0 0 182 130" version="1.1" xmlns="http://www.w3.org/2000/svg" xmlns:xlink="http://www.w3.org/1999/xlink">
    <!-- Generator: Sketch 59.1 (86144) - https://sketch.com -->
    <title>Graph</title>
    <desc>Created with Sketch.</desc>
    <g id="BudgetPlannerApp" stroke="none" stroke-width="1" fill="none" fill-rule="evenodd">
        <g id="Onboarding---illustrations-3" transform="translate(-92.000000, -147.000000)">
            <g id="3" transform="translate(43.000000, 130.000000)">
                <g id="Illustration">
                    <g id="Phone" transform="translate(49.000000, 3.000000)">
                        <g id="Graph" transform="translate(0.030018, 0.055531)">
                            <path d="M6.96998174,0.94446916 L172.969982,0.94446916 C175.731405,0.94446916 177.969982,3.18304541 177.969982,5.94446916 L177.969982,153.944469 C177.969982,156.705893 175.731405,158.944469 172.969982,158.944469 L6.96998174,158.944469 C4.20855799,158.944469 1.96998174,156.705893 1.96998174,153.944469 L1.96998174,5.94446916 C1.96998174,3.18304541 4.20855799,0.94446916 6.96998174,0.94446916 Z" id="Rectangle-Copy-13" fill-rule="nonzero"></path>
                            <g id="Lines" transform="translate(21.969982, 38.944469)" stroke="#757595" stroke-linecap="square" stroke-width="0.5">
                                <line x1="136.337964" y1="1.68317215" x2="136.337964" y2="104.356673" id="Line-5-Copy-5"></line>
                                <line x1="109.409253" y1="1.68317215" x2="109.070217" y2="104.356673" id="Line-5-Copy-4"></line>
                                <line x1="82.311024" y1="1.68317215" x2="81.9719881" y2="104.356673" id="Line-5-Copy-6"></line>
                                <line x1="55.2127952" y1="1.68317215" x2="54.8737593" y2="104.356673" id="Line-5-Copy-3"></line>
                                <line x1="27.9450485" y1="1.68317215" x2="27.9450485" y2="104.356673" id="Line-5-Copy-2"></line>
                                <line x1="0.84681965" y1="0" x2="0.84681965" y2="102.673501" id="Line-5"></line>
                            </g>
                            <g id="Days" transform="translate(5.969982, 132.944469)" fill="#5A5A7B">
                                <rect id="Value-Copy-9" x="158.15793" y="0" width="11.9002626" height="6.47862487" rx="2"></rect>
                                <rect id="Value-Copy-8" x="133.768949" y="0" width="11.9002626" height="6.47862487" rx="2"></rect>
                                <rect id="Value-Copy-7" x="106.00167" y="0" width="11.9002626" height="6.47862487" rx="2"></rect>
                                <rect id="Value-Copy-6" x="79.9235397" y="0" width="11.9002626" height="6.47862487" rx="2"></rect>
                                <rect id="Value-Copy-5" x="52.1562603" y="0" width="11.9002626" height="6.47862487" rx="2"></rect>
                                <rect id="Value-Copy-4" x="24.3889809" y="0" width="11.9002626" height="6.47862487" rx="2"></rect>
                                <rect id="Value-Copy-3" x="0" y="0" width="11.9002626" height="6.47862487" rx="2"></rect>
                            </g>
                            <path d="M1.96998174,114.654531 C8.2752203,118.326302 15.9229425,119.641063 24.9131483,118.598815 C38.3984571,117.035443 40.9099171,100.217696 51.1720118,100.217696 C61.4341066,100.217696 63.0174363,109.133906 75.7223627,106.219085 C85.622869,103.947667 92.3062621,87.9444692 104.217601,87.9444692 C116.128939,87.9444692 119.367703,106.219085 134.389029,106.219085 C145.739777,106.219085 146.459098,92.784629 157.855696,92.784629 C167.804908,92.784629 167.674747,106.890606 177.969982,106.219085" id="Path-6-Copy" stroke="#C18AE9" stroke-width="2"></path>
                            <path d="M0.969981739,98.1450786 C9.55221173,101.152104 16.2900028,100.390269 21.1833551,95.8595731 C28.4378715,89.1427036 31.2900417,76.3285232 43.8587748,76.3285232 C56.4275079,76.3285232 51.5602639,88.7640232 71.7167884,87.2972006 C87.8603675,86.1224064 86.8768184,56.9444692 100.352401,56.9444692 C113.827983,56.9444692 116.912828,87.2972006 131.685592,87.2972006 C146.627502,87.2972006 144.634349,73.4025232 156.087089,73.4025232 C166.085314,73.4025232 165.178847,88.6392315 176.969982,87.2972006" id="Path-6" stroke="#6577E9" stroke-width="2"></path>
                            <g id="Tooltip" transform="translate(131.969982, 39.944469)">
                                <path d="M1,0 L48.4209516,0 C48.9732363,-4.02567223e-15 49.4209516,0.44771525 49.4209516,1 L49.4209516,20.078726 C49.4209516,20.6310107 48.9732363,21.078726 48.4209516,21.078726 L29.3462897,21.078726 C29.074493,21.078726 28.8144051,21.1893598 28.6258962,21.3851603 L25.6013806,24.526667 C25.2284337,24.9140398 24.6159215,24.9371336 24.2148643,24.5789434 L20.5803283,21.3328839 C20.3970555,21.1692002 20.1599315,21.078726 19.9142055,21.078726 L1,21.078726 C0.44771525,21.078726 -6.39863462e-16,20.6310107 0,20.078726 L0,1 C-6.76353751e-17,0.44771525 0.44771525,1.01453063e-16 1,0 Z" id="Value-Copy-10" fill="#5A5A7B"></path>
                                <rect id="Value" fill="#FFFFFF" x="6.3212845" y="6.78971738" width="36.7783826" height="7.40696441" rx="1"></rect>
                            </g>
                            <g id="Pointer" transform="translate(150.969982, 66.944469)">
                                <ellipse id="Oval-Copy" fill="#6264DB" opacity="0.231584821" cx="7.74666688" cy="7.28854975" rx="7.74666688" ry="7.28854975"></ellipse>
                                <ellipse id="Oval" fill="#FFFFFF" cx="7.74563843" cy="7.28845298" rx="6.02438545" ry="5.66879676"></ellipse>
                                <ellipse id="Oval-Copy-2" fill="#8493F4" cx="7.74563843" cy="7.28845298" rx="2.58187948" ry="2.42948433"></ellipse>
                            </g>
                            <g id="Tabs" transform="translate(13.969982, 13.944469)">
                                <rect id="Link-3-Copy" fill="#5A5A7B" x="125.213322" y="0" width="30.1192628" height="5.94369254" rx="2.97184627"></rect>
                                <rect id="Link-3" fill="#5A5A7B" x="82.6646188" y="0" width="28.6557716" height="5.94369254" rx="2.97184627"></rect>
                                <rect id="selected" fill="#8493F4" x="52.545356" y="9.71793731" width="10.2342041" height="1.48592314" rx="0.742961568"></rect>
                                <rect id="Link-2" fill="#8493F4" x="45.8521865" y="0" width="24.5620899" height="5.94369254" rx="2.97184627"></rect>
                                <rect id="Link-1" fill="#5A5A7B" x="0.135996659" y="0" width="33.4658475" height="5.94369254" rx="2.97184627"></rect>
                            </g>
                        </g>
                    </g>
                </g>
            </g>
        </g>
    </g>
</svg>