<?xml version="1.0" encoding="UTF-8"?>
<svg width="12px" height="14px" viewBox="0 0 12 14" version="1.1" xmlns="http://www.w3.org/2000/svg" xmlns:xlink="http://www.w3.org/1999/xlink">
    <!-- Generator: Sketch 59.1 (86144) - https://sketch.com -->
    <title>Group 2</title>
    <desc>Created with Sketch.</desc>
    <defs>
        <linearGradient x1="100%" y1="23.3528862%" x2="16.8549275%" y2="79.4867871%" id="linearGradient-1">
            <stop stop-color="#FFBBCF" offset="0%"></stop>
            <stop stop-color="#A665D1" offset="100%"></stop>
        </linearGradient>
    </defs>
    <g id="BudgetPlannerApp" stroke="none" stroke-width="1" fill="none" fill-rule="evenodd">
        <g id="Onboarding---illustrations-3" transform="translate(-147.000000, -308.000000)">
            <g id="3" transform="translate(43.000000, 130.000000)">
                <g id="Illustration">
                    <g id="Phone" transform="translate(87.000000, 23.000000)">
                        <g id="3" transform="translate(10.530018, 152.247685)">
                            <g id="Group-2" transform="translate(7.290013, 3.239312)">
                                <path d="M6.52596016,3.50925514 L7.8975137,0.135606198 C7.73747742,0.0203783891 7.60747978,0 7.50976468,0 C7.2363248,0 6.95562627,0.162486765 6.65799683,0.326951412 C6.62478558,0.345303351 6.59173318,0.363475644 6.55895653,0.381634136 C6.23813153,0.556823068 5.90348474,0.715931004 5.55638487,0.715931004 C5.38865467,0.715931004 5.224463,0.678698064 5.06975409,0.604229418 C4.43499489,0.292613237 3.9585615,0.0981848235 3.53500766,0.0981848235 C3.20233596,0.0981848235 2.91997967,0.231414219 2.63250457,0.523216068 L4.12600921,3.50925514 L6.52596016,3.50925514 Z" id="Path" fill="#DF9CD0"></path>
                                <path d="M8.6377502,12.8222784 C9.1607774,12.8222784 9.63479586,12.6145205 9.97740702,12.2798443 C10.3150541,11.9500171 10.5252279,11.4969767 10.5300183,10.9968002 C10.5300183,10.9875133 10.5300183,10.9782239 10.5300183,10.9689318 C10.5300183,9.14423649 9.84527173,7.41986196 8.49454166,5.83428874 C7.67892463,4.87390996 6.85302257,4.25886856 6.54852706,4.04914055 L3.9823894,4.04914055 C3.67914044,4.26190176 2.85077235,4.87428828 2.03562118,5.83411875 C0.68773404,7.41977955 0,9.14702589 0,10.9689318 C0,11.4803899 0.213352133,11.9443423 0.558306292,12.280332 C0.901597716,12.6147021 1.37541255,12.8222784 1.89820599,12.8222784 L8.6377502,12.8222784 Z" id="Path" fill="url(#linearGradient-1)" fill-rule="nonzero"></path>
                                <text id="$" font-family="Karla-Bold, Karla" font-size="7" font-weight="bold" fill="#FFFFFF">
                                    <tspan x="3.24000562" y="10.9081092">$</tspan>
                                </text>
                            </g>
                        </g>
                    </g>
                </g>
            </g>
        </g>
    </g>
</svg>