<?xml version="1.0" encoding="UTF-8"?>
<svg width="69px" height="165px" viewBox="0 0 69 165" version="1.1" xmlns="http://www.w3.org/2000/svg" xmlns:xlink="http://www.w3.org/1999/xlink">
    <!-- Generator: Sketch 59.1 (86144) - https://sketch.com -->
    <title>ManPoiting</title>
    <desc>Created with Sketch.</desc>
    <defs>
        <linearGradient x1="55.1428327%" y1="4.50953485%" x2="46.8871395%" y2="100%" id="linearGradient-1">
            <stop stop-color="#3D3A83" offset="0%"></stop>
            <stop stop-color="#292452" offset="100%"></stop>
        </linearGradient>
        <path d="M26.7380813,86.1967907 C25.3839688,94.5312016 24.1505614,103.485991 23.0378591,113.061159 C21.9251567,122.636328 20.4652635,136.858273 18.6581794,155.726995 C19.636212,158.110756 21.6940656,159.60985 24.8317403,160.224279 C27.969415,160.838707 30.7190071,160.249776 33.0805168,158.457485 C40.7479499,119.52342 44.6898864,99.7366058 44.9063262,99.0970418 C45.2309859,98.1376959 45.9402168,99.3513836 44.7263227,103.264889 C43.9170599,105.873892 44.1655312,117.507452 45.4717365,138.165568 L46.8446332,158.906037 C48.3661305,160.235796 50.6308197,160.900676 53.6387007,160.900676 C56.6465818,160.900676 59.0521008,160.235796 60.8552579,158.906037 C60.8990833,140.252211 60.7710673,126.20054 60.4712099,116.751022 C60.1713525,107.301505 59.5337735,97.2266985 58.5584729,86.5266024 C54.732463,89.446649 49.1549447,90.7991325 41.8259178,90.5840527 C34.496891,90.3689729 29.4676121,88.9065523 26.7380813,86.1967907 Z" id="path-2"></path>
        <filter x="-2.4%" y="-1.3%" width="104.7%" height="105.4%" filterUnits="objectBoundingBox" id="filter-3">
            <feMorphology radius="0.5" operator="erode" in="SourceAlpha" result="shadowSpreadOuter1"></feMorphology>
            <feOffset dx="0" dy="3" in="shadowSpreadOuter1" result="shadowOffsetOuter1"></feOffset>
            <feColorMatrix values="0 0 0 0 0   0 0 0 0 0   0 0 0 0 0  0 0 0 0.300752944 0" type="matrix" in="shadowOffsetOuter1"></feColorMatrix>
        </filter>
        <linearGradient x1="50%" y1="-10.505138%" x2="50%" y2="113.253821%" id="linearGradient-4">
            <stop stop-color="#8E6565" offset="0%"></stop>
            <stop stop-color="#3E2E27" offset="100%"></stop>
        </linearGradient>
        <linearGradient x1="52.4664978%" y1="-8.27241315%" x2="50.3264779%" y2="103.315035%" id="linearGradient-5">
            <stop stop-color="#C38FFE" offset="0%"></stop>
            <stop stop-color="#6F7AF7" offset="100%"></stop>
        </linearGradient>
        <path d="M63.8098587,55.2820529 C67.6060619,63.7794268 69.2633095,72.3100894 68.7816016,80.8740405 C68.0862119,90.996352 67.5898674,94.0981632 63.6699044,94.0981632 C61.0565958,94.0981632 59.6360542,91.184372 59.4082799,85.3567895 C61.6584119,80.5122115 63.0789534,76.2962486 63.6699044,72.7089009 C64.2608554,69.1215533 64.3075068,63.3126039 63.8098587,55.2820529 Z" id="path-6"></path>
        <filter x="-232.7%" y="-25.8%" width="465.4%" height="151.5%" filterUnits="objectBoundingBox" id="filter-7">
            <feMorphology radius="2" operator="erode" in="SourceAlpha" result="shadowSpreadOuter1"></feMorphology>
            <feOffset dx="0" dy="12" in="shadowSpreadOuter1" result="shadowOffsetOuter1"></feOffset>
            <feGaussianBlur stdDeviation="6" in="shadowOffsetOuter1" result="shadowBlurOuter1"></feGaussianBlur>
            <feColorMatrix values="0 0 0 0 0.517647059   0 0 0 0 0.576470588   0 0 0 0 0.956862745  0 0 0 0.3 0" type="matrix" in="shadowBlurOuter1"></feColorMatrix>
        </filter>
        <linearGradient x1="50%" y1="47.2869677%" x2="54.2639326%" y2="54.5358922%" id="linearGradient-8">
            <stop stop-color="#6D6EE5" offset="0%"></stop>
            <stop stop-color="#BA79D7" stop-opacity="0" offset="100%"></stop>
        </linearGradient>
        <linearGradient x1="91.5729321%" y1="7.64887048%" x2="55.5027997%" y2="88.7482144%" id="linearGradient-9">
            <stop stop-color="#C38FFE" offset="0%"></stop>
            <stop stop-color="#6F7AF7" offset="100%"></stop>
        </linearGradient>
        <linearGradient x1="52.5939769%" y1="25.5153279%" x2="50%" y2="106.388326%" id="linearGradient-10">
            <stop stop-color="#6C6DE4" offset="0%"></stop>
            <stop stop-color="#8780F9" offset="100%"></stop>
        </linearGradient>
        <linearGradient x1="58.0790527%" y1="3.30748163%" x2="45.3895912%" y2="103.745865%" id="linearGradient-11">
            <stop stop-color="#F6C8C5" offset="0%"></stop>
            <stop stop-color="#F39D97" offset="100%"></stop>
        </linearGradient>
    </defs>
    <g id="BudgetPlannerApp" stroke="none" stroke-width="1" fill="none" fill-rule="evenodd">
        <g id="Onboarding---illustrations-3" transform="translate(-212.000000, -189.000000)">
            <g id="3" transform="translate(43.000000, 130.000000)">
                <g id="Illustration">
                    <g id="ManPoiting" transform="translate(169.000000, 59.000000)">
                        <path d="M18.6553664,155.294693 C14.50806,155.345143 12.5789612,156.545039 12.8680702,158.894382 C13.3017335,162.418396 19.8398669,164.294922 24.4796223,164.536576 C29.1193778,164.77823 30.0594071,163.953363 30.3010652,160.491622 C30.3959986,159.131706 26.9877876,161.476751 21.9459668,159.257563 C20.1722178,158.278061 19.075351,156.957105 18.6553664,155.294693 Z" id="Foot-1" fill="#717FE0" fill-rule="nonzero"></path>
                        <path d="M57.2252388,160.560603 C57.1635343,162.702803 56.3395873,163.773902 54.7533976,163.773902 C52.3741132,163.773902 40.8759262,163.430549 39.7620913,158.222969 C39.7004284,156.070515 42.0528501,155.050378 46.8193563,155.162559 C46.8193563,157.091093 46.994975,158.241449 47.3462123,158.613626 C47.8730682,159.171893 49.2577256,160.186424 51.2572629,160.560603 C52.5902878,160.810056 54.5796131,160.810056 57.2252388,160.560603 Z" id="Foot2" fill="#717FE0" fill-rule="nonzero"></path>
                        <g id="Feet" fill-rule="nonzero">
                            <use fill="black" fill-opacity="1" filter="url(#filter-3)" xlink:href="#path-2"></use>
                            <use fill="url(#linearGradient-1)" xlink:href="#path-2"></use>
                        </g>
                        <path d="M36.6360421,17.956881 C35.1391677,23.3544854 33.2117867,24.2664017 33.2117867,28.1409538 C33.2117867,32.0155058 34.7443024,35.8954304 37.1987434,37.615661 C38.8350375,38.7624814 40.5844288,39.6581563 42.4469175,40.3026855 L42.4469175,41.927695 C44.3288803,42.2171103 46.3442659,42.3618179 48.4930744,42.3618179 C50.9331892,42.3618179 52.63111,42.1542082 53.586837,41.7389886 L53.586837,39.2379572 C50.4099331,39.7845437 48.2947655,39.2437783 47.2413342,37.615661 C45.6611872,35.173485 45.772926,30.0670044 48.8214811,27.2956504 C51.8700362,24.5242963 52.7710504,19.2654975 47.8374009,19.6763955 C43.7968077,20.0615349 38.9009127,14.1381074 37.7387195,12.642572 C36.5765263,11.1470366 38.1329164,12.5592766 36.6360421,17.956881 Z" id="Face" fill="#F6C8C5"></path>
                        <path d="M37.2471355,12.091227 C33.1501462,-2.64922863 41.1905754,-1.08332584 46.2424754,2.20079211 C50.1524369,4.74256347 52.5238186,2.67482676 56.6844412,4.13606668 C72.6995504,9.76068561 70.7052489,26.7389216 63.3371127,33.9080471 C57.3862253,39.6603443 51.7336303,40.0538308 49.0185305,39.1157757 C46.3034307,38.1777206 44.474901,32.5587391 47.6394419,28.7115874 C50.8039829,24.8644357 52.6386167,22.3033588 50.1856172,20.3619833 C47.7326178,18.4206078 45.8619965,23.321669 37.2471355,12.091227 Z" id="hair" fill="url(#linearGradient-4)" fill-rule="nonzero"></path>
                        <g id="right-hand" fill-rule="nonzero">
                            <use fill="black" fill-opacity="1" filter="url(#filter-7)" xlink:href="#path-6"></use>
                            <use fill="url(#linearGradient-5)" xlink:href="#path-6"></use>
                        </g>
                        <path d="M4.5506562,40.9434756 C4.19290597,38.9660129 3.09735955,36.5150508 1.26401694,33.5905892 C-0.569325673,30.6661277 0.756909661,28.5401711 5.24272294,27.2127193 C4.91522149,24.7201282 4.46098717,22.8860634 3.88001996,21.710525 C3.00856914,19.9472175 4.42291585,19.7059674 4.90708118,20.6787656 C6.09772584,22.8436792 7.51237915,25.357345 9.15104111,28.2197629 C12.1970075,28.3534702 12.8905742,29.7243259 11.2317414,32.3323299 C10.0982514,34.384426 9.87508365,36.695042 10.5622381,39.264178 C9.41840864,38.8925259 8.29369426,38.8029213 7.18809502,38.9953645 C6.34624106,39.179996 5.46709479,39.8293664 4.5506562,40.9434756 Z" id="Pointing" fill="#F6C8C5"></path>
                        <path d="M64.20935,56.1292895 C64.9144113,61.5926951 64.8303128,66.772047 63.9570545,71.6673452 C63.0837963,76.5626433 61.443179,81.0216754 59.0352028,85.0444415 L61.2089805,85.0444415 C62.3236109,83.6896451 63.7382384,79.989273 65.4528632,73.9433254 C67.1252947,68.0461556 66.4888541,62.7568637 65.0166959,58.0518038 C64.8931911,57.6570789 64.6240758,57.0162408 64.20935,56.1292895 Z" id="Path-6" fill="url(#linearGradient-8)" fill-rule="nonzero" opacity="0.471749442" style="mix-blend-mode: multiply;"></path>
                        <path d="M41.4964282,41.6088154 C40.7994301,41.9260406 41.3920557,43.415864 40.7905084,44.1273177 C40.1889611,44.8387713 39.57642,43.7624967 31.5832805,46.9473483 C23.5901409,50.1321998 21.8567646,52.0846905 18.0271102,53.0566 C15.4256724,53.427992 15.6052746,36.1568697 6.76455866,39.1626086 C-0.702115906,41.8292637 8.63504252,61.6137916 9.87361885,63.9661653 C11.1121952,66.3185389 14.599812,68.7584142 32.1068243,62.8783115 C32.1986913,62.7687104 32.2528466,62.8949031 32.2692902,63.2568895 L26.2584309,65.0891689 C25.1229975,70.5089276 24.5552808,74.5126786 24.5552808,77.1004219 C24.5552808,80.9820368 24.2021749,86.0417356 30.4737352,88.654438 C36.7452955,91.2671404 53.8531933,92.2093609 58.6805995,86.3809264 C63.7159694,79.8788057 66.8115779,60.4989348 63.1980901,53.427992 C60.7890981,48.7140302 57.9124765,46.2078359 54.5682251,45.9094091 C54.9166402,43.3119558 54.9166402,41.7936008 54.5682251,41.3543441 C54.0456025,40.6954591 53.7260977,42.0132291 48.4397654,42.0132291 C43.1534332,42.0132291 42.1934262,41.2915901 41.4964282,41.6088154 Z" id="body" fill="url(#linearGradient-9)" fill-rule="nonzero"></path>
                        <path d="M26.2542924,65.0662603 L32.2816321,63.2554053 C32.6144895,66.2647955 32.7607621,68.4995614 32.7204499,69.9597028 C32.6801378,71.4198442 32.4136125,73.65461 31.9208742,76.6640002 L24.5769493,76.6640002 C24.6121745,74.8264547 24.8397137,72.7936415 25.2595669,70.5655606 C25.4929969,69.3267926 25.824572,67.4936925 26.2542924,65.0662603 Z" id="shadow" fill="url(#linearGradient-10)" fill-rule="nonzero"></path>
                        <path d="M61.7328463,93.4081419 L61.591321,99.1160311 C61.615037,99.9425165 61.7991951,100.355759 62.1437955,100.355759 C62.660696,100.355759 63.5214975,98.9681845 63.5214975,100.355759 C63.5214975,101.280809 63.4755413,103.025912 63.383629,105.591069 C66.1645468,105.165308 67.7306006,103.420205 68.0817904,100.355759 C68.3317999,97.3934246 67.8099757,94.9445817 66.5163175,93.0092305 C65.9314986,93.6283747 65.1788907,93.9781857 64.2584939,94.0586636 C63.3380971,94.1391414 62.4962146,93.9223008 61.7328463,93.4081419 Z" id="hand" fill="url(#linearGradient-11)"></path>
                    </g>
                </g>
            </g>
        </g>
    </g>
</svg>