<?xml version="1.0" encoding="UTF-8"?>
<svg width="140px" height="98px" viewBox="0 0 140 98" version="1.1" xmlns="http://www.w3.org/2000/svg" xmlns:xlink="http://www.w3.org/1999/xlink">
    <!-- Generator: Sketch 59.1 (86144) - https://sketch.com -->
    <title>porky</title>
    <desc>Created with Sketch.</desc>
    <defs>
        <linearGradient x1="79.7993035%" y1="22.5817297%" x2="32.9946685%" y2="81.5600597%" id="linearGradient-1">
            <stop stop-color="#F5B4B0" offset="0%"></stop>
            <stop stop-color="#F39D97" offset="100%"></stop>
        </linearGradient>
        <path d="M41.211684,11.1953782 C62.2547267,7.84355728 74.5224615,11.3728889 74.5224615,11.3728889 C74.5224615,11.3728889 85.9366076,1.51059974 93.9259894,0.288908014 C101.441734,-0.859691045 100.17176,1.7873077 100.17176,1.7873077 C100.17176,1.7873077 89.6216124,16.4319457 91.0997781,17.89902 C94.3631934,21.1359809 105.48587,26.2994558 106.896373,30.9147357 C108.228805,35.2898539 117.097799,40.6882695 124.394941,40.4063406 C129.807943,40.1922835 128.439078,60.8931711 123.640244,63.4670772 C117.61828,66.6935963 110.503306,67.2261286 110.503306,67.2261286 C110.503306,67.2261286 100.296676,81.5314078 87.2950628,86.841068 C86.3477875,87.227415 89.2208421,92.1402864 88.6899516,93.9258359 C88.1694707,95.6121881 82.3609038,99.4077859 80.6016784,97.4551675 C78.7175376,95.3668056 76.3181206,91.1900817 76.3181206,91.1900817 C76.3181206,91.1900817 62.192269,91.9732175 54.4371036,92.0880774 C48.649356,92.1663909 32.5769059,90.0467036 32.5769059,90.0467036 C32.5769059,90.0467036 29.9745014,94.6828671 27.9862643,97.2045641 C26.5549419,98.9953344 18.320934,97.3768539 19.1901371,93.3097691 C20.1374124,88.9033254 21.2304223,86.459942 20.2987615,83.9800122 C19.4347632,81.6828141 0,71.9719311 0,50.2111998 C-0.010403211,37.9525153 12.6633067,15.7480072 41.211684,11.1953782 Z" id="path-2"></path>
    </defs>
    <g id="BudgetPlannerApp" stroke="none" stroke-width="1" fill="none" fill-rule="evenodd">
        <g id="Onboarding---illustrations-2" transform="translate(-110.000000, -243.000000)">
            <g id="2" transform="translate(31.000000, 141.000000)">
                <g id="hand-pork">
                    <g id="porky" transform="translate(79.000000, 102.000000)">
                        <g id="Oval" transform="translate(11.079137, 0.000000)">
                            <mask id="mask-3" fill="white">
                                <use xlink:href="#path-2"></use>
                            </mask>
                            <use id="Mask" fill="url(#linearGradient-1)" xlink:href="#path-2"></use>
                            <ellipse fill="#F8BCB8" fill-rule="nonzero" mask="url(#mask-3)" cx="54.7544308" cy="23.7461538" rx="27.1857663" ry="15.4538462"></ellipse>
                        </g>
                        <path d="M76.5003864,17.6479191 C69.2044399,15.8560465 61.4092342,16.3024995 54.4551979,18.9105079 C53.7166739,19.1595504 52.8799308,18.872214 52.5452006,18.2546176 L52.5452006,18.2546176 C52.3565538,17.9537136 52.3222485,17.5989918 52.4505097,17.2754995 C52.578771,16.9520072 52.8580327,16.6889156 53.2213397,16.5493029 C60.890951,13.6911236 69.4819477,13.2202339 77.512685,15.2178457 C77.9042608,15.3000697 78.2340941,15.5256521 78.4149623,15.8349391 C78.5958304,16.144226 78.6095174,16.5060676 78.4524037,16.8247769 L78.4524037,16.8247769 C78.1228085,17.4712682 77.2978439,17.819146 76.5003864,17.6479191 L76.5003864,17.6479191 Z" id="Path" fill="#4D2A2A"></path>
                        <path d="M136.194444,41.0019158 C138.579558,40.9150964 140.225286,43.7750296 139.974849,50.3988391 C139.611119,59.8927958 136.35544,63.860953 133.886847,63.9988426 C130.547689,64.1878025 131.632915,41.1755546 136.194444,41.0019158 Z" id="Path" fill="#F3948E"></path>
                        <path d="M98.7969453,86.9079077 C106.072538,83.9260069 113.642877,77.1399709 117.841727,72.6228856 C105.467531,77.4157837 86.6244188,82.2242939 70.6770645,82.2242939 C47.9763885,82.2242939 30.4232561,76.0914148 16.1151079,67 C21.8032044,77.6682315 31.3195625,82.4576048 31.9297401,84.0760536 C32.8501776,86.5479609 31.7710868,88.9927768 30.8351364,93.3901698 C29.9715799,97.4388938 38.4462413,99.0124474 39.8630944,97.2274702 C41.5323945,94.9480481 43.0574089,92.5650977 44.4290846,90.0927651 C44.4290846,90.0927651 60.3919518,92.2055954 66.1472713,92.1275351 C73.8675696,92.0234548 87.901655,91.2116284 87.901655,91.2116284 C87.901655,91.2116284 90.2906555,95.3748407 92.1573854,97.4564469 C93.9051823,99.4027486 99.6966987,95.6246335 100.198285,93.9385325 C100.710214,92.1639632 97.8558239,87.2669848 98.7969453,86.9079077 Z" id="Path" fill="#F3948E"></path>
                        <path d="M2.5187478,48.8577155 C5.1395003,50.8081139 8.45204744,51.4689476 11.5827739,50.6659355 L12.0863309,45.6071003 C12.0863309,45.6071003 6.42635018,48.9152023 3.74239133,44.8702245 C3.31436787,44.2221919 2.81081087,42.0795034 3.29926116,41.7711653 C3.78771146,41.4628272 8.10319501,43.5689332 9.91096467,40.4855522 C11.5273827,37.7209615 8.98441977,34.9459186 6.72848438,35.3796823 C4.5883671,35.7977679 2.54392565,37.5223708 2.54392565,37.5223708 C2.0154708,37.1228437 1.60269457,36.5805755 1.35049555,35.95455 C1.13396603,35.1654135 0.776440559,34 0.776440559,34 C0.776440559,34 -1.02629353,35.4685255 0.86204525,39.2260695 C0.831914694,40.2533145 0.72924953,41.2768842 0.554875476,42.2885462 C0.262812412,43.8511409 0.403808374,47.3421554 2.5187478,48.8577155 Z M4.28119733,38.9281835 C4.32651746,38.5519065 6.47670588,37.4753362 7.3478595,37.7784482 C7.96723462,37.9979431 7.9370212,39.1842609 7.31764608,39.4246601 C5.67605024,40.0726927 4.36680202,39.4507905 4.28119733,38.9281835 Z" id="Shape" fill="#F3948E" fill-rule="nonzero"></path>
                        <ellipse id="Oval" fill="#4D2A2A" cx="103.23741" cy="34.5" rx="3.52517986" ry="3.5"></ellipse>
                    </g>
                </g>
            </g>
        </g>
    </g>
</svg>