<?xml version="1.0" encoding="UTF-8"?>
<svg width="24px" height="17px" viewBox="0 0 24 17" version="1.1" xmlns="http://www.w3.org/2000/svg" xmlns:xlink="http://www.w3.org/1999/xlink">
    <!-- Generator: Sketch 59.1 (86144) - https://sketch.com -->
    <title>Combined Shape</title>
    <desc>Created with Sketch.</desc>
    <g id="BudgetPlannerApp---roundedCorner" stroke="none" stroke-width="1" fill="none" fill-rule="evenodd">
        <g id="Expenses-detailed" transform="translate(-29.000000, -1158.000000)" fill="#D8D8D8" fill-rule="nonzero">
            <g id="Menu" transform="translate(0.000000, 1111.000000)">
                <path d="M53,52.7858667 L53,63.0577333 C53,63.4046667 52.7153938,63.6857333 52.3678395,63.6857333 L52.3678395,63.6857333 L29.6325623,63.6857333 C29.2843383,63.6857333 29,63.4048 29,63.0577333 L29,63.0577333 L29,52.7858667 L53,52.7858667 Z M50.4039901,58.1937333 L42.8239571,58.1937333 L42.8239571,60.2057333 L50.4039901,60.2057333 L50.4039901,58.1937333 Z M52.3678395,47 C52.7153938,47 53,47.2814667 53,47.6297333 L53,47.6297333 L53,50.5213333 L29,50.5213333 L29,47.6297333 C29,47.2805333 29.2851419,47 29.6325623,47 L29.6325623,47 Z" id="Combined-Shape"></path>
            </g>
        </g>
    </g>
</svg>