<?xml version="1.0" encoding="iso-8859-1"?>
<!-- Generator: Adobe Illustrator 18.0.0, SVG Export Plug-In . SVG Version: 6.00 Build 0)  -->
<!DOCTYPE svg PUBLIC "-//W3C//DTD SVG 1.1//EN" "http://www.w3.org/Graphics/SVG/1.1/DTD/svg11.dtd">
<svg version="1.1" id="Capa_1" xmlns="http://www.w3.org/2000/svg" xmlns:xlink="http://www.w3.org/1999/xlink" x="0px" y="0px"
	 viewBox="0 0 489.759 489.759" style="enable-background:new 0 0 489.759 489.759;" xml:space="preserve">
<path d="M366.827,92.665c0-24.582-17.323-45.194-40.403-50.27C319.082,17.751,296.28,0,269.433,0
	c-14.7,0-28.825,5.518-39.635,15.161c-3.542-0.823-7.181-1.245-10.837-1.245c-18.896,0-35.451,11.121-43.184,27.301
	c-0.458-0.013-0.917-0.019-1.378-0.019c-28.379,0-51.468,23.088-51.468,51.467c0,20.953,12.593,39.01,30.602,47.032
	c-6.546,44.458-8.973,120.97,25.03,211.833c12.66,33.826,12.107,82.244-1.564,122.141c-1.271,3.711-0.67,7.81,1.61,11.001
	c2.281,3.192,5.962,5.087,9.885,5.087h105.195c3.924,0,7.606-1.895,9.887-5.087c2.281-3.192,2.88-7.29,1.608-11.001
	c-13.671-39.897-14.223-88.314-1.564-122.141c33.355-89.13,31.655-164.448,25.4-209.252
	C350.789,136.275,366.827,116.313,366.827,92.665z M315.36,112.134h-95.193v35.698c0,10.493-8.506,19-19,19
	c-10.494,0-19-8.507-19-19v-35.698H174.4c-10.734,0-19.468-8.733-19.468-19.469c0-10.734,8.733-19.467,19.468-19.467
	c2.417,0,4.78,0.441,7.026,1.313c4.747,1.842,10.086,1.313,14.38-1.421c4.294-2.734,7.031-7.35,7.37-12.43
	c0.552-8.268,7.486-14.744,15.785-14.744c2.709,0,5.272,0.657,7.62,1.953c7.051,3.893,15.9,1.936,20.653-4.568
	C252.481,36.119,260.572,32,269.433,32c14.664,0,26.715,11.457,27.436,26.083c0.211,4.294,2.142,8.322,5.357,11.177
	c3.214,2.854,7.442,4.292,11.732,3.998c0.582-0.041,1.027-0.059,1.402-0.059c10.734,0,19.467,8.732,19.467,19.467
	C334.827,103.4,326.094,112.134,315.36,112.134z"/>
<g>
</g>
<g>
</g>
<g>
</g>
<g>
</g>
<g>
</g>
<g>
</g>
<g>
</g>
<g>
</g>
<g>
</g>
<g>
</g>
<g>
</g>
<g>
</g>
<g>
</g>
<g>
</g>
<g>
</g>
</svg>
