<?xml version="1.0" encoding="UTF-8"?>
<svg width="18px" height="24px" viewBox="0 0 18 24" version="1.1" xmlns="http://www.w3.org/2000/svg" xmlns:xlink="http://www.w3.org/1999/xlink">
    <!-- Generator: Sketch 59.1 (86144) - https://sketch.com -->
    <title>Calculator</title>
    <desc>Created with Sketch.</desc>
    <g id="BudgetPlannerApp---roundedCorner" stroke="none" stroke-width="1" fill="none" fill-rule="evenodd">
        <g id="Expenses-detailed" transform="translate(-107.000000, -1154.000000)" fill="#D8D8D8">
            <g id="Menu" transform="translate(0.000000, 1111.000000)">
                <path d="M123,43 C124.104569,43 125,43.8954305 125,45 L125,65 C125,66.1045695 124.104569,67 123,67 L109,67 C107.895431,67 107,66.1045695 107,65 L107,45 C107,43.8954305 107.895431,43 109,43 L123,43 Z M112.625,62.125 L110.375,62.125 L110.375,64.375 L112.625,64.375 L112.625,62.125 Z M117.125,62.125 L114.875,62.125 L114.875,64.375 L117.125,64.375 L117.125,62.125 Z M122,62 L119,62 L119,64.25 L122,64.25 L122,62 Z M112.625,57.625 L110.375,57.625 L110.375,59.875 L112.625,59.875 L112.625,57.625 Z M117.125,57.625 L114.875,57.625 L114.875,59.875 L117.125,59.875 L117.125,57.625 Z M121.625,57.625 L119.375,57.625 L119.375,59.875 L121.625,59.875 L121.625,57.625 Z M112.625,53.125 L110.375,53.125 L110.375,55.375 L112.625,55.375 L112.625,53.125 Z M117.125,53.125 L114.875,53.125 L114.875,55.375 L117.125,55.375 L117.125,53.125 Z M121.625,53.125 L119.375,53.125 L119.375,55.375 L121.625,55.375 L121.625,53.125 Z M121.75,45.25 L110.25,45.25 C109.697715,45.25 109.25,45.6977153 109.25,46.25 L109.25,46.25 L109.25,48.9868421 C109.25,49.5391269 109.697715,49.9868421 110.25,49.9868421 L110.25,49.9868421 L121.75,49.9868421 C122.302285,49.9868421 122.75,49.5391269 122.75,48.9868421 L122.75,48.9868421 L122.75,46.25 C122.75,45.6977153 122.302285,45.25 121.75,45.25 L121.75,45.25 Z" id="Calculator"></path>
            </g>
        </g>
    </g>
</svg>