<?xml version="1.0" encoding="UTF-8"?>
<svg width="20px" height="24px" viewBox="0 0 20 24" version="1.1" xmlns="http://www.w3.org/2000/svg" xmlns:xlink="http://www.w3.org/1999/xlink">
    <title>frequency-icon</title>
    <g id="BudgetPlanner-DarkTheme" stroke="none" stroke-width="1" fill="none" fill-rule="evenodd">
        <g id="Add-transaction-4" transform="translate(-50.000000, -265.000000)" fill="#BCBACE" fill-rule="nonzero">
            <g id="Add" transform="translate(20.000000, 162.000000)">
                <g id="Frequency" transform="translate(16.000000, 92.000000)">
                    <path d="M24.7541855,14 C25.1430367,14 25.458286,14.326724 25.458286,14.729729 C25.458286,15.1327339 25.1430367,15.4594579 24.7541855,15.4594579 L24.7541855,15.4594579 L24.7041474,15.4594579 L24.7041474,16.3732732 C29.3388653,16.7467484 33,20.7748036 33,25.6724525 C33,28.3789199 31.8816068,30.8194254 30.099153,32.5248506 L30.099153,32.5248506 L31.2854215,33.7542979 C31.5603962,34.0392814 31.5603962,34.5013458 31.2854215,34.7862806 C31.0103998,35.0712641 30.5645634,35.0712155 30.2896826,34.7862806 L30.2896826,34.7862806 L28.985266,33.4343361 C27.5571625,34.422827 25.8424901,35 24.0000469,35 C22.1576038,35 20.4429314,34.422827 19.0147809,33.4343361 L19.0147809,33.4343361 L17.7103644,34.786232 C17.4353897,35.0712155 16.9895532,35.0712155 16.7146255,34.786232 C16.4396508,34.5012485 16.4396508,34.0392328 16.7146255,33.7542493 L16.7146255,33.7542493 L17.900847,32.5248506 C16.1183463,30.8194254 15,28.3789199 15,25.6724525 C15,20.774755 18.6611347,16.7467484 23.2958995,16.3732732 L23.2958995,16.3732732 L23.2958995,15.4594579 L23.2458615,15.4594579 C22.8570102,15.4594579 22.541761,15.1327339 22.541761,14.729729 C22.541761,14.326724 22.8570102,14 23.2458615,14 L23.2458615,14 Z M28.2687734,22.0299374 C27.9937987,21.7449539 27.5479623,21.7449539 27.2730345,22.0299374 L27.2730345,22.0299374 L24.0000469,25.4220581 L21.4812448,22.8115744 C21.2062701,22.5265909 20.7604337,22.5265909 20.485506,22.8115744 C20.2105313,23.0965579 20.2105313,23.5585736 20.485506,23.8435571 L20.485506,23.8435571 L23.502201,26.9700565 C23.6341963,27.106905 23.8133195,27.1838184 24.0000469,27.1838184 C24.1867744,27.1838184 24.3658506,27.106905 24.4978929,26.9700565 L24.4978929,26.9700565 L28.2687734,23.0619201 C28.5437481,22.7769366 28.5437481,22.3148723 28.2687734,22.0299374 Z M32.7861629,15.2085427 C33.0638525,14.9308334 33.5140907,14.9308808 33.7917328,15.2085427 C34.0694224,15.486252 34.0694224,15.9364748 33.7917328,16.2141841 L33.7917328,16.2141841 L33.139224,16.8668816 C34.241971,18.3855599 34.282738,20.4418318 33.2594392,22 C32.1966059,19.105101 29.8948354,16.8033564 27,15.7408268 C27.7303453,15.2588888 28.5856936,15 29.4809557,15 C30.4475599,15 31.3678036,15.3017446 32.1344126,15.8603868 L32.1344126,15.8603868 Z M14.2082897,15.2082739 C14.4860094,14.9305517 14.9362964,14.9305991 15.2139686,15.2082739 L15.2139686,15.2082739 L15.8668326,15.861144 C17.3860416,14.7580775 19.4420108,14.717448 21,15.740962 C18.1053724,16.8037308 15.8037791,19.105298 14.7409729,22 C13.7174684,20.4419963 13.7580976,18.3860079 14.8611537,16.8668322 L14.8611537,16.8668322 L14.2082897,16.2139621 C13.9305701,15.9362399 13.9305701,15.4859961 14.2082897,15.2082739 Z M27.0093263,11 C28.9009456,11 30.5503836,12.249487 31,13.9951883 C30.6170705,13.9180273 30.2231019,13.8781031 29.8228447,13.8781031 C29.7260265,13.8781031 29.6296607,13.8812675 29.5335212,13.8859058 C29.1032232,12.9417681 28.1184827,12.3004653 27.0093263,12.3004653 L27.0093263,12.3004653 L20.9489152,12.3004653 C19.844283,12.3004653 18.8729795,12.9425917 18.4602354,13.8869029 C18.3712893,13.8829148 18.2821623,13.8801838 18.1926734,13.8802271 C17.7868061,13.8802271 17.3876347,13.9210618 17,14 C17.4266786,12.2511343 19.0582008,11 20.9489152,11 L20.9489152,11 Z" id="frequency-icon"></path>
                </g>
            </g>
        </g>
    </g>
</svg>