<?xml version="1.0" encoding="iso-8859-1"?>
<!-- Generator: Adobe Illustrator 19.0.0, SVG Export Plug-In . SVG Version: 6.00 Build 0)  -->
<svg version="1.1" id="Capa_1" xmlns="http://www.w3.org/2000/svg" xmlns:xlink="http://www.w3.org/1999/xlink" x="0px" y="0px"
	 viewBox="0 0 512 512" style="enable-background:new 0 0 512 512;" xml:space="preserve">
<g>
	<g>
		<path d="M256.24,83.199l-0.24-0.01l-0.24,0.01c-3.57,0.06-81.8,1.69-124.295,31.624l85.44,234.298h78.189l85.44-234.298
			C338.04,84.889,259.811,83.259,256.24,83.199z"/>
	</g>
</g>
<g>
	<g>
		<path d="M185.962,349.121l-73.079-197.664c-29.754,12.812-52.246,30.814-67.068,45.255c-9.961,9.711-15.512,23.273-15.222,37.185
			c0.05,2.67,0.32,5.321,0.79,7.921l128.806,121.085l25.928-13.782H185.962z"/>
	</g>
</g>
<g>
	<g>
		<path d="M466.186,196.713c-14.822-14.442-37.315-32.444-67.068-45.255l-73.079,197.664l25.773,13.782l128.765-121.057l0.041-0.028
			v-0.01c0.47-2.6,0.74-5.241,0.79-7.911C481.697,219.986,476.147,206.424,466.186,196.713z"/>
	</g>
</g>
<g>
	<g>
		<path d="M500.08,293.625c-3.07-7.231-6.471-13.822-9.861-19.652l-96.432,90.651c20.833,15.742,37.215,36.744,46.626,50.366
			c6.051,8.761,16.032,13.822,27.053,13.822c0.8,0,1.6-0.03,2.4-0.08c11.791-0.78,21.883-7.191,26.983-17.162
			C515.892,374.334,517.002,333.549,500.08,293.625z"/>
	</g>
</g>
<g>
	<g>
		<path d="M21.782,273.972c-3.39,5.831-6.791,12.422-9.861,19.652c-16.922,39.925-15.812,80.71,3.23,117.944
			c5.101,9.971,15.192,16.382,26.983,17.162c0.8,0.05,1.6,0.08,2.4,0.08c11.021,0,21.003-5.061,27.053-13.822
			c9.411-13.622,25.793-34.624,46.626-50.366L21.782,273.972z"/>
	</g>
</g>
<g>
</g>
<g>
</g>
<g>
</g>
<g>
</g>
<g>
</g>
<g>
</g>
<g>
</g>
<g>
</g>
<g>
</g>
<g>
</g>
<g>
</g>
<g>
</g>
<g>
</g>
<g>
</g>
<g>
</g>
</svg>
