<?xml version="1.0" encoding="UTF-8"?>
<svg width="24px" height="19px" viewBox="0 0 24 19" version="1.1" xmlns="http://www.w3.org/2000/svg" xmlns:xlink="http://www.w3.org/1999/xlink">
    <!-- Generator: Sketch 59.1 (86144) - https://sketch.com -->
    <title>Combined Shape</title>
    <desc>Created with Sketch.</desc>
    <g id="BudgetPlannerApp---roundedCorner" stroke="none" stroke-width="1" fill="none" fill-rule="evenodd">
        <g id="Expenses-detailed" transform="translate(-318.000000, -1157.000000)" fill="#D8D8D8" fill-rule="nonzero">
            <g id="Menu" transform="translate(0.000000, 1111.000000)">
                <path d="M339.977827,46 C341.094668,46 342,46.8964533 342,48.0023421 L342,48.0023421 L342,52.6885248 L336.944567,52.6885248 C335.416296,52.6885248 334.177383,53.9152881 334.177383,55.4285714 C334.177383,56.9418547 335.416296,58.1686189 336.944567,58.1686189 L336.944567,58.1686189 L342,58.1686189 L342,62.8548012 C342,63.9606373 341.094668,64.8571429 339.977827,64.8571429 L339.977827,64.8571429 L320.022173,64.8571429 C318.905332,64.8571429 318,63.9606373 318,62.8548016 L318,62.8548016 L318,48.0023421 C318,46.8964533 318.905332,46 320.022173,46 L320.022173,46 Z M336.971149,53.7142857 C337.9273,53.7142857 338.702413,54.4817976 338.702413,55.4285714 C338.702413,56.3753453 337.9273,57.1428571 336.971149,57.1428571 C336.014999,57.1428571 335.239885,56.3753453 335.239885,55.4285714 C335.239885,54.4817976 336.014999,53.7142857 336.971149,53.7142857 Z" id="Combined-Shape"></path>
            </g>
        </g>
    </g>
</svg>