<?xml version="1.0" encoding="UTF-8"?>
<svg width="36px" height="36px" viewBox="0 0 36 36" version="1.1" xmlns="http://www.w3.org/2000/svg" xmlns:xlink="http://www.w3.org/1999/xlink">
    <!-- Generator: Sketch 59.1 (86144) - https://sketch.com -->
    <title>makeup</title>
    <desc>Created with Sketch.</desc>
    <g id="BudgetPlannerApp---roundedCorner" stroke="none" stroke-width="1" fill="none" fill-rule="evenodd">
        <g id="Add-new-categ-1" transform="translate(-217.000000, -219.000000)" fill="#D8D8D8">
            <g id="Categories" transform="translate(0.000000, 196.000000)">
                <path d="M233.684122,23.0012396 C233.892966,22.9968086 236.301055,22.9636817 239.244541,23.8567001 C240.141783,24.1288889 240.992769,24.4595244 241.794303,24.8449494 C244.362074,22.3837157 248.518101,22.3908896 251.075706,24.8680186 C253.641444,27.3531655 253.641444,31.3966811 251.075633,33.8816874 C250.700572,34.2449574 250.285427,34.5598384 249.837459,34.8235872 C250.655042,37.9345573 250.608785,41.21925 249.641178,44.1465806 C248.427331,47.8189489 245.881054,50.7348855 242.259481,52.6146058 L242.259481,52.6146058 L244.180462,58.0697051 C244.309936,58.4371952 244.107265,58.8367571 243.727774,58.9620905 C243.650148,58.9878324 243.571069,59 243.49337,59 C243.191361,59 242.90932,58.8160088 242.806424,58.5236345 L242.806424,58.5236345 L240.855815,52.9844872 C238.784737,52.9641609 236.927294,52.0565836 235.455805,50.3365896 C234.278484,48.9603835 233.764218,47.5480964 233.742941,47.4885947 C233.662991,47.2652873 233.696758,47.0175041 233.845185,46.8298556 C233.993539,46.6422071 234.221916,46.5391693 234.465542,46.5556975 L234.500756,46.5552592 C234.656794,46.5505599 235.299935,46.5019807 235.79986,46.0284812 C236.294737,45.5598523 236.541486,44.795262 236.53328,43.7560917 C236.522025,42.3409913 235.118141,41.660238 232.637727,40.5787975 C230.030743,39.4422159 226.786265,38.0275376 224.923158,34.6524669 C224.21508,33.369663 223.832467,32.0884767 223.774883,30.8633458 C222.721008,32.2771802 221.506216,34.479729 221.506216,37.1229846 C221.506216,40.775941 219.712603,42.7891533 218.545085,43.7120632 C218.827052,43.8581449 219.145836,44.0063365 219.455834,44.1503786 C220.636423,44.6989761 221.349003,45.030104 221.349003,45.707622 L221.349003,45.707622 L221.349003,47.2045196 C221.349003,47.558154 221.279292,47.9035595 221.141902,48.231241 L221.141902,48.231241 L220.961888,48.6604835 C220.90561,48.7946789 220.928049,48.9488488 221.020561,49.0626477 L221.020561,49.0626477 L221.148656,49.2203343 C221.249301,49.3442611 221.304054,49.4974464 221.304054,49.655133 L221.304054,49.655133 L221.304054,50.0520222 C221.304054,50.1033654 221.335569,50.1495741 221.384367,50.1697597 L221.384367,50.1697597 L221.415737,50.182701 C221.683254,50.2932645 221.856879,50.547659 221.856879,50.8294131 L221.856879,50.8294131 L221.856879,52.042517 C221.856879,53.0363226 222.691744,53.844871 223.717734,53.844871 L223.717734,53.844871 L225.86121,53.844871 C226.262123,53.844871 226.587152,54.1596816 226.587152,54.5479902 C226.587152,54.9362988 226.262123,55.2511094 225.86121,55.2511094 L225.86121,55.2511094 L223.717734,55.2511094 C221.891081,55.2511094 220.405069,53.8118145 220.405069,52.0425874 L220.405069,52.0425874 L220.405069,51.2170184 C220.059635,50.930552 219.852244,50.5082725 219.852244,50.0520222 L219.852244,50.0520222 L219.852244,49.8977819 C219.460989,49.3915249 219.370219,48.7187895 219.61675,48.1312275 L219.61675,48.1312275 L219.796765,47.7020554 C219.863354,47.5431731 219.897121,47.3758509 219.897121,47.2045196 L219.897121,47.2045196 L219.897121,45.9521699 C219.659158,45.8046112 219.171179,45.5778575 218.827779,45.4182719 C218.439429,45.2377974 218.03779,45.0512039 217.680665,44.8568034 C217.289774,44.644046 217.036707,44.2581991 217.003667,43.824596 C216.970627,43.391204 217.162405,42.9737072 217.516553,42.7078483 C218.464263,41.9963595 220.054261,40.3247546 220.054261,37.1230549 C220.054261,32.3160744 223.441067,28.9259525 224.191553,28.2338052 C224.332137,27.8713792 224.507359,27.5191514 224.717655,27.1793023 C226.311066,24.6041994 229.746089,23.0037716 233.684122,23.0012396 Z M236.16129,57.8387097 C236.313988,57.8387097 236.463839,57.9007993 236.571813,58.0088317 C236.679788,58.1168641 236.741935,58.2666574 236.741935,58.4193548 C236.741935,58.5720523 236.679788,58.7219037 236.571813,58.829878 C236.463781,58.9378523 236.313988,59 236.16129,59 C236.008012,59 235.858741,58.9378523 235.750767,58.829878 C235.642793,58.7218456 235.580645,58.5720523 235.580645,58.4193548 C235.580645,58.2666574 235.642735,58.116806 235.750767,58.0088317 C235.8588,57.9008574 236.008012,57.8387097 236.16129,57.8387097 Z M225.567489,47.3335701 C226.247307,45.8509856 227.767068,44.9441669 229.349946,45.0774507 C231.502552,45.2583975 233.172347,47.0765639 233.234003,49.306731 L233.234003,49.306731 L233.307698,51.969747 L235.487304,55.8697718 C235.679441,56.2134772 235.565453,56.6530118 235.232608,56.8512121 C234.899762,57.0496281 234.474293,56.9318725 234.282296,56.5881671 L234.282296,56.5881671 L232.362606,53.1532697 L231.523637,53.653695 L230.684669,54.1541203 L232.790371,57.9218678 C232.982507,58.2656451 232.86845,58.7051797 232.535744,58.9035957 C232.42621,58.9689436 232.306517,59 232.188563,59 C231.948132,59 231.714312,58.8711733 231.585502,58.6406226 L231.585502,58.6406226 L229.215152,54.3994085 L227.045427,52.9383191 C225.282104,51.7508424 224.631931,49.3735886 225.533112,47.4084793 L225.533112,47.4084793 Z M229.041317,46.5019482 C228.104298,46.5019482 227.230395,47.0648458 226.824968,47.9488754 L226.824968,47.9488754 L226.790591,48.0237846 C226.185929,49.3423884 226.622185,50.9375524 227.805342,51.7343077 L227.805342,51.7343077 L229.756626,53.0483105 L231.910136,51.7638545 L231.843261,49.3479239 C231.801925,47.8516084 230.681537,46.6315656 229.237211,46.5102156 C229.171728,46.50468 229.106383,46.5019482 229.041317,46.5019482 Z M234.560435,44.1851415 C234.687738,43.9386179 235.007603,43.8340246 235.274917,43.9513273 C235.542177,44.0686795 235.655752,44.3636671 235.528449,44.6102402 L235.528449,44.6102402 L235.439541,44.7825347 C235.347684,44.9605163 235.155497,45.0645161 234.955159,45.0645161 C234.877887,45.0645161 234.79949,45.0490373 234.72506,45.0163488 C234.4578,44.8989472 234.344278,44.6039596 234.471527,44.357436 L234.471527,44.357436 Z M221.857031,39.4915266 C222.139525,39.1802438 222.597564,39.1802438 222.880058,39.4915266 C223.47985,40.1524442 224.45577,40.1524442 225.05549,39.4915266 C225.337983,39.1802438 225.796022,39.1802438 226.078516,39.4915266 C226.360937,39.802889 226.360937,40.3076072 226.078443,40.6188102 C225.496524,41.2600335 224.732185,41.5806452 223.967774,41.5806452 C223.203362,41.5806452 222.438951,41.2599538 221.857031,40.6188102 C221.574538,40.3075275 221.574538,39.8028093 221.857031,39.4915266 Z M250.049134,25.8623165 C248.157345,24.0299303 245.14393,23.9321674 243.131017,25.5666365 C245.290251,26.868993 247.011901,28.6226765 248.203601,30.7585496 C248.680034,31.6124628 249.079712,32.5040745 249.403579,33.4181928 C249.632101,33.2596622 249.847843,33.0824933 250.049134,32.8874598 C252.048831,30.9506291 252.048831,27.7991472 250.049134,25.8623165 Z" id="makeup"></path>
            </g>
        </g>
    </g>
</svg>