<?xml version="1.0" encoding="UTF-8"?>
<svg width="36px" height="32px" viewBox="0 0 36 32" version="1.1" xmlns="http://www.w3.org/2000/svg" xmlns:xlink="http://www.w3.org/1999/xlink">
    <!-- Generator: Sketch 59.1 (86144) - https://sketch.com -->
    <title>Masks</title>
    <desc>Created with Sketch.</desc>
    <g id="BudgetPlannerApp---roundedCorner" stroke="none" stroke-width="1" fill="none" fill-rule="evenodd">
        <g id="Add-new-categ-1" transform="translate(-126.000000, -296.000000)" fill="#D8D8D8" fill-rule="nonzero">
            <g id="Categories" transform="translate(0.000000, 196.000000)">
                <path d="M160.185084,109.95189 C160.423958,109.86662 160.687245,109.887155 160.909969,110.008228 C161.133293,110.130064 161.296449,110.341063 161.358346,110.590919 C161.771342,112.243721 162,114.023932 162,115.884298 C162,124.508626 157.1761,131.5 151.22536,131.5 C146.764879,131.5 142.937188,127.571398 141.3,121.971139 C142.752098,121.228595 144.070637,120.105734 145.199278,118.681718 C145.572988,119.01211 146.152145,119.228453 146.809949,119.228453 C147.939192,119.228453 148.854499,117.879096 148.854499,117.106018 C148.854499,116.332939 147.939267,116.428667 146.809949,116.428667 C146.767207,116.428667 146.726719,116.43569 146.684353,116.437446 C147.555641,114.852356 148.237784,113.052602 148.664677,111.092538 C149.490295,111.14651 150.341827,111.180785 151.22536,111.180785 C154.859549,111.180785 158.090806,110.699625 160.185084,109.95189 Z M151.225511,121.530132 C148.792152,121.530132 146.819339,123.534854 146.819339,126.007836 C146.819339,126.33006 146.862081,126.639841 146.931565,126.940309 C146.950644,127.022602 147.010814,127.089092 147.090063,127.116116 C147.169237,127.142529 147.256598,127.125506 147.320373,127.071382 C148.159662,126.354641 149.587497,125.878442 151.225435,125.878442 C152.863224,125.878442 154.291059,126.354641 155.130423,127.071382 C155.194122,127.126116 155.281409,127.143064 155.360733,127.116116 C155.439907,127.089703 155.500151,127.022602 155.519231,126.940309 C155.58864,126.639917 155.631382,126.33006 155.631532,126.007836 C155.631532,123.53493 153.658869,121.530132 151.225511,121.530132 Z M146.080635,100 C146.228513,100 146.375262,100.036414 146.507479,100.108097 C146.731329,100.229782 146.894868,100.440938 146.956911,100.690798 C147.370879,102.343551 147.6,104.123868 147.6,105.984037 C147.6,114.608662 142.764821,121.6 136.800075,121.6 C130.835179,121.6 126,114.608662 126,105.984037 C126,104.123868 126.229121,102.343627 126.643089,100.690798 C126.705207,100.441472 126.869274,100.230393 127.092521,100.108708 C127.225341,100.036796 127.372767,100 127.52057,100 C127.621464,100 127.722359,100.016871 127.819188,100.051758 C129.918395,100.799505 133.157183,101.280521 136.800075,101.280521 C140.442893,101.280521 143.68168,100.799505 145.780888,100.051758 C145.878243,100.016871 145.979665,100 146.080635,100 Z M155.640696,116.428591 C154.511454,116.428591 153.596146,116.332862 153.596146,117.105941 C153.596146,117.87902 154.511379,119.228377 155.640696,119.228377 C156.769939,119.228377 157.685171,118.601563 157.685246,117.828484 C157.685246,117.055405 156.769939,116.428591 155.640696,116.428591 Z M140.945031,113.061715 C140.865595,113.034767 140.778103,113.051714 140.714178,113.10645 C139.872914,113.823203 138.441719,114.29941 136.8,114.29941 C135.158281,114.29941 133.727086,113.823203 132.885746,113.10645 C132.821897,113.052325 132.734405,113.035301 132.654894,113.061715 C132.575534,113.088892 132.515147,113.155384 132.496023,113.237525 C132.426451,113.537998 132.383608,113.847937 132.383608,114.170167 C132.383608,116.642961 134.360914,118.647793 136.800075,118.647793 C139.239086,118.647793 141.216392,116.642961 141.216392,114.170167 C141.216392,113.847937 141.173474,113.537998 141.103902,113.237525 C141.084777,113.155384 141.024466,113.088281 140.945031,113.061715 Z M132.374272,106.524979 C131.242296,106.524979 130.324834,107.151652 130.324834,107.924896 C130.324834,108.697988 131.242296,109.324813 132.374272,109.324813 C133.506172,109.324813 134.423634,109.420542 134.423634,108.647451 C134.423634,107.874206 133.506172,106.524979 132.374272,106.524979 Z M141.225804,106.524979 C140.093828,106.524979 139.176366,107.874206 139.176366,108.647451 C139.176366,109.420542 140.093828,109.324813 141.225804,109.324813 C142.357704,109.324813 143.275166,108.697988 143.275166,107.924896 C143.275166,107.151652 142.357704,106.524979 141.225804,106.524979 Z" id="Masks"></path>
            </g>
        </g>
    </g>
</svg>