<svg id="Capa_1" enable-background="new 0 0 511.999 511.999" height="512" viewBox="0 0 511.999 511.999" width="512" xmlns="http://www.w3.org/2000/svg"><path d="m175.679 308.596c.722 0 1.433-.051 2.127-.149l171.794-.262c1.871 0 45.631-.03 63.279-2.52.238-.027.478-.061.716-.1.677-.111 16.781-2.79 34.007-9.065 26.233-9.557 41.741-22.616 46.096-38.816.864-3.216.634-6.628-.655-9.699-.346-.823-8.69-20.403-27.786-39.754-25.455-25.795-58.208-39.447-94.731-39.487-20.362-.436-40.497-5.157-58.871-13.71l-56.459 49.834c-2.796 2.311-6.182 3.436-9.546 3.436-4.32 0-8.605-1.855-11.572-5.445-5.276-6.386-4.377-15.841 2.009-21.118l48.226-42.567s.001 0 .001.001c-5.633-3.827-10.98-7.814-15.883-11.857-.743-.613-1.479-1.234-2.213-1.856l-54.418 43.342c-2.618 1.834-5.619 2.714-8.591 2.714-4.729 0-9.382-2.229-12.3-6.397-4.752-6.786-3.103-16.14 3.684-20.891l50.094-39.897c-4.292-4.872-8.333-9.916-12.093-15.106 0 0 0 .001.001.001l-50.511 40.36c-2.618 1.833-5.62 2.714-8.591 2.714-4.729 0-9.382-2.229-12.3-6.397-4.752-6.786-3.103-16.14 3.684-20.891l51.967-41.524c-4.145-8.173-7.624-16.549-10.362-25.034-1.638-5.073-5.846-8.897-11.053-10.042-31.288-6.885-82.913 7.584-117.958 24.037-9.458 3.343-19.339 2.961-27.197-1.073-4.062-2.084-8.852-2.205-13.013-.329-4.162 1.876-7.243 5.545-8.371 9.969l-22.207 87.093c-3.538 13.877-5.695 28.215-6.411 42.613l.025.002c-.225 2.554-.251 5.783-.286 10.142l-.004.328c-.004.289-.008.578-.007.867.001.19.005.381.013.57l.107 105.963z"/><path d="m511.669 323.963c-.115-.538-2.167-9.901-8.846-25.586-10.997 10.61-26.008 19.409-44.953 26.311-19.44 7.082-37.418 10.153-39.404 10.479-.573.095-1.141.177-1.704.247-18.97 2.617-58.649 2.768-66.961 2.771-.086 0-.158 0-.201 0l-170.221.26c-1.232.101-2.468.151-3.7.151h-175.559l-.02 8.303c-.16 10.748 3.838 21.072 10.979 28.344 6.398 6.515 14.765 10.103 23.584 10.103l21.337-.038c-6.471 10.108-10.241 22.104-10.241 34.972 0 35.877 29.188 65.064 65.063 65.064 35.877 0 65.064-29.188 65.064-65.064 0-12.946-3.816-25.01-10.36-35.157l140.744-.238c-6.638 10.196-10.512 22.348-10.512 35.395 0 35.877 29.188 65.064 65.063 65.064 35.877 0 65.065-29.188 65.065-65.064 0-13.541-4.162-26.125-11.268-36.551 8.424-.435 16.301-1.05 21.861-1.919.095-.013.189-.025.284-.039 6.623-.98 64.995-10.74 74.812-51.138.532-2.188.564-4.468.094-6.67zm-400.847 131.382c-19.334 0-35.063-15.729-35.063-35.064 0-19.334 15.729-35.063 35.063-35.063 19.335 0 35.064 15.729 35.064 35.063.001 19.334-15.729 35.064-35.064 35.064zm250 0c-19.334 0-35.063-15.729-35.063-35.064 0-19.334 15.729-35.063 35.063-35.063 19.335 0 35.065 15.729 35.065 35.063s-15.73 35.064-35.065 35.064z"/><path d="m360.822 402.737c-8.284 0-15 6.716-15 15v3.731c0 8.284 6.716 15 15 15s15-6.716 15-15v-3.731c0-8.284-6.715-15-15-15z"/><path d="m110.822 402.737c-8.284 0-15 6.716-15 15v3.731c0 8.284 6.716 15 15 15s15-6.716 15-15v-3.731c0-8.284-6.715-15-15-15z"/></svg>