<?xml version="1.0" encoding="UTF-8"?>
<svg width="20px" height="25px" viewBox="0 0 20 25" version="1.1" xmlns="http://www.w3.org/2000/svg" xmlns:xlink="http://www.w3.org/1999/xlink">
    <!-- Generator: Sketch 59.1 (86144) - https://sketch.com -->
    <title>salary-icon</title>
    <desc>Created with Sketch.</desc>
    <g id="BudgetPlannerApp---roundedCorner" stroke="none" stroke-width="1" fill="none" fill-rule="evenodd">
        <g id="Incomes-detailed" transform="translate(-111.000000, -677.000000)" fill="#90E5BA" fill-rule="nonzero">
            <g id="Categories-overview" transform="translate(20.000000, 601.000000)">
                <g id="Salary" transform="translate(56.000000, 62.000000)">
                    <path d="M40.3153541,14.3053258 C41.2261756,13.3045326 42.8488385,15.1 44.3386969,14.9201133 C45.3891218,14.7644193 47.5623796,13.8807365 48.5631728,14.0822663 C49.3163739,14.233881 48.0924646,17.7003399 46.2607932,19.2390368 C53.1651558,22.0815297 63.248272,39.4603399 43.1116714,37.9901416 C28.5586402,36.9276487 36.9006232,22.2843626 42.8355807,19.3674221 C40.846289,18.0782436 39.5747875,15.1190368 40.3153541,14.3053258 Z M45.1571671,23.6220963 C44.9463456,23.5249858 44.6912748,23.5629462 44.5175637,23.7165439 C44.3912181,23.828272 44.3175071,23.9915581 44.3175071,24.1602833 L44.3175071,24.1602833 L44.3175071,24.8150708 C43.7362606,24.8973371 43.1567705,25.1213031 42.7205099,25.5228329 C42.5164873,25.7106516 42.350085,25.9372238 42.2345042,26.1895751 C42.1111048,26.4590935 42.0549008,26.7522946 42.0571105,27.048102 C42.0592635,27.3394334 42.112238,27.6327479 42.2401133,27.896034 C42.3613031,28.1454958 42.5463456,28.3562606 42.7644193,28.5258924 C43.2131445,28.8747875 43.774051,29.0564873 44.3174504,29.1971671 L44.3174504,29.1971671 L44.3174504,31.5406232 C44.0395467,31.4626629 43.7729745,31.3316147 43.5636827,31.1299717 C43.462153,31.0321246 43.3739943,30.9193768 43.3036261,30.7971105 C43.2679887,30.7350142 43.2376771,30.6698017 43.2125779,30.6027195 C43.1872521,30.5351841 43.1719547,30.4652125 43.1494051,30.3969405 C43.076204,30.1752975 42.8724079,30.0139377 42.6398867,29.9933144 C42.4036261,29.972238 42.172238,30.0990935 42.0624363,30.3091218 C42.0090085,30.4112181 41.986289,30.5281586 41.998017,30.6427762 C42.0049858,30.7111048 42.0251558,30.7777337 42.0447025,30.8432861 C42.066289,30.9156941 42.0909348,30.9873088 42.1185836,31.0576204 C42.2244193,31.3266856 42.3774504,31.5759207 42.5651558,31.7955807 C42.941983,32.2362606 43.457847,32.5341076 44.0139943,32.6869122 C44.1141076,32.7143909 44.2154108,32.7374504 44.3174504,32.7568272 L44.3174504,32.7568272 L44.3174504,33.4462323 C44.3174504,33.6752408 44.4541643,33.8886686 44.6622663,33.9844193 C44.8730312,34.0815297 45.1282153,34.0436261 45.3018697,33.8899717 C45.4282153,33.7782436 45.5019263,33.6150142 45.5019263,33.4462323 L45.5019263,33.4462323 L45.5019263,32.8154674 C46.0969972,32.7672521 46.6959207,32.5951275 47.1734278,32.2250425 C47.6256657,31.8745609 47.9282153,31.3583003 47.9901416,30.7874221 C48.0368839,30.3569972 47.9662323,29.9039093 47.7512181,29.5249858 C47.7615864,29.5431586 47.7718272,29.5611084 47.7800655,29.5755444 L47.7495184,29.5217564 L47.7495184,29.5217564 L47.7324939,29.4920103 L47.748102,29.5193201 C47.5078754,29.0997041 47.1104746,28.8165355 46.6773852,28.6216658 L46.5135411,28.5526346 C46.185949,28.4234561 45.8437394,28.3341643 45.501813,28.2522946 L45.501813,28.2522946 L45.501813,26.0096884 C45.7895184,26.0607365 46.0774504,26.152068 46.3148442,26.3273654 C46.4244759,26.4082153 46.5205099,26.5063456 46.5946176,26.6207932 C46.6327479,26.6796601 46.6658357,26.741983 46.6913881,26.8073088 C46.7167139,26.8718414 46.7291218,26.9403399 46.7539377,27.0050425 C46.8372805,27.2226062 47.0481586,27.3741643 47.2809065,27.3843059 C47.5177904,27.3944476 47.7429462,27.2577904 47.8433428,27.0431728 C47.8923513,26.9384136 47.9098017,26.8201133 47.8926912,26.7056091 C47.881983,26.633881 47.8594334,26.5631161 47.8369972,26.4943909 C47.8129178,26.4206799 47.7850992,26.3483853 47.7533144,26.2777337 C47.6394901,26.0244759 47.4776204,25.792238 47.2798867,25.5973371 C46.8624929,25.1858357 46.3042493,24.9501416 45.7334844,24.8468555 C45.6566572,24.8329178 45.5794334,24.8212465 45.501983,24.8115014 L45.501983,24.8115014 L45.501983,24.1602833 C45.501983,23.9312748 45.3652125,23.7179037 45.1571671,23.6220963 Z M45.501983,29.4735411 C45.7799433,29.5466289 46.0598867,29.6275921 46.315864,29.7610765 C46.4334278,29.8224363 46.5471955,29.8960907 46.6371105,29.9945609 C46.7209065,30.0864023 46.7725212,30.1977904 46.7975071,30.3191501 C46.8435694,30.5431161 46.8210765,30.7903116 46.7079887,30.9915014 L46.7079887,30.9915014 L46.6288391,31.1102795 C46.3681807,31.4443116 45.9080283,31.5815297 45.501983,31.6274221 L45.501983,31.6274221 Z M44.3174504,26.0173371 L44.3174504,27.9663456 C44.1803966,27.9243059 44.0532578,27.8807932 43.9402266,27.8352975 C43.8054958,27.7811331 43.6732011,27.7172238 43.5529178,27.6354108 C43.4457224,27.5623229 43.3418697,27.4715581 43.2922946,27.3486119 C43.2402266,27.2196034 43.2326912,27.0671388 43.246119,26.930085 C43.2595467,26.7933144 43.3082153,26.6646459 43.385779,26.5513881 C43.5929178,26.2489518 43.9712181,26.0912181 44.3174504,26.0173371 L44.3174504,26.0173371 Z" id="salary-icon"></path>
                </g>
            </g>
        </g>
    </g>
</svg>