<?xml version="1.0" encoding="UTF-8"?>
<svg width="20px" height="18px" viewBox="0 0 20 18" version="1.1" xmlns="http://www.w3.org/2000/svg" xmlns:xlink="http://www.w3.org/1999/xlink">
    <!-- Generator: Sketch 59.1 (86144) - https://sketch.com -->
    <title>suitcase</title>
    <desc>Created with Sketch.</desc>
    <g id="BudgetPlannerApp---roundedCorner" stroke="none" stroke-width="1" fill="none" fill-rule="evenodd">
        <g id="Incomes-detailed" transform="translate(-244.000000, -679.000000)" fill="#FCCAAB" fill-rule="nonzero">
            <g id="Categories-overview" transform="translate(20.000000, 601.000000)">
                <g id="Business" transform="translate(189.000000, 62.000000)">
                    <path d="M55,19.024292 L55,31.8203125 C55,32.7895508 54.2114258,33.578125 53.2421875,33.578125 L53.2421875,33.578125 L36.7578125,33.578125 C35.7885742,33.578125 35,32.7895508 35,31.8203125 L35,31.8203125 L35,19.024 L37.106781,25.3452454 C37.330658,26.0160217 37.9292392,26.4814351 38.624011,26.540509 L38.7742615,26.546875 L42.0703125,26.546875 L42.0703125,27.1328125 C42.0703125,27.456604 42.3324585,27.71875 42.65625,27.71875 L42.65625,27.71875 L47.34375,27.71875 C47.6675415,27.71875 47.9296875,27.456604 47.9296875,27.1328125 L47.9296875,27.1328125 L47.9296875,26.546875 L51.2257385,26.546875 C51.9833374,26.546875 52.6533508,26.0639343 52.8930664,25.3452454 L52.8930664,25.3452454 L55,19.024292 Z M46.7578125,25.375 L46.7578125,26.546875 L43.2421875,26.546875 L43.2421875,25.375 L46.7578125,25.375 Z M47.34375,16 C48.3129883,16 49.1015625,16.7885742 49.1015625,17.7578125 L49.1015625,17.7578125 L49.1015625,18.34375 L53.9920044,18.34375 L51.7819214,24.9744568 C51.7018127,25.2141723 51.4781189,25.375 51.2257385,25.375 L51.2257385,25.375 L47.9296875,25.375 L47.9296875,24.7890625 C47.9296875,24.465271 47.6675415,24.203125 47.34375,24.203125 L47.34375,24.203125 L42.65625,24.203125 C42.3324585,24.203125 42.0703125,24.465271 42.0703125,24.7890625 L42.0703125,24.7890625 L42.0703125,25.375 L38.7742615,25.375 C38.5218811,25.375 38.2981873,25.2141723 38.2180786,24.9744568 L38.2180786,24.9744568 L36.0081482,18.34375 L40.8984375,18.34375 L40.8984375,17.7578125 C40.8984375,16.7885742 41.6870117,16 42.65625,16 L42.65625,16 Z M47.34375,17.171875 L42.65625,17.171875 C42.3329162,17.171875 42.0703125,17.4344788 42.0703125,17.7578125 L42.0703125,17.7578125 L42.0703125,18.34375 L47.9296875,18.34375 L47.9296875,17.7578125 C47.9296875,17.4344788 47.6670837,17.171875 47.34375,17.171875 L47.34375,17.171875 Z" id="suitcase"></path>
                </g>
            </g>
        </g>
    </g>
</svg>